<svg width="255" height="81" viewBox="0 0 255 81" fill="none" xmlns="http://www.w3.org/2000/svg">
<path d="M108.222 32.4582C106.451 31.1168 104.763 29.843 103.08 28.5595C100.603 26.6778 99.9701 25.2592 100.681 23.2278C101.376 21.2544 103.63 19.7538 106.318 19.8213C111.342 19.9468 116.367 20.2073 121.386 20.4776C123.919 20.6127 126.441 20.9359 128.969 21.1048C130.282 21.1917 130.709 21.5005 130.282 22.8611C129.746 24.5789 128.794 25.5632 126.987 26.2917C122.663 28.0432 118.488 30.1277 114.215 31.995C112.588 32.7043 111.306 33.5245 111.718 35.884C110.884 35.1988 110.477 34.8611 110.071 34.5281C106.333 36.6077 100.758 44.7187 102.58 49.1722C103.702 48.516 104.845 47.9128 105.901 47.1939C106.24 46.9623 106.554 46.4074 106.524 46.0262C106.168 41.317 109.19 38.2434 114.04 37.3363C118.184 36.5595 122.364 36.4002 126.488 37.4328C131.6 38.7115 133.875 41.9056 133.355 46.8803C132.516 54.8802 124.609 62.277 115.914 62.9912C113.581 63.1842 111.208 62.8609 108.454 62.7547C108.104 64.6172 107.517 66.6823 107.383 68.7716C107.224 71.2806 109.211 72.786 111.723 71.9658C113.396 71.4205 115.249 70.4797 116.258 69.1914C120.552 63.7101 126.354 60.3615 133 58.1034C136.284 56.984 138.508 54.6342 137.978 50.6921C137.237 45.2398 137.149 39.7151 136.742 34.2193C136.202 26.8949 135.641 19.5753 135.064 12.2556C134.853 9.59704 134.4 6.94326 134.369 4.27982C134.354 3.02048 135.085 1.75149 135.476 0.482499C135.661 0.472849 135.847 0.463199 136.032 0.458374C137.268 3.55606 138.508 6.65858 139.744 9.75627C139.589 9.84794 139.435 9.94444 139.28 10.0361C138.755 9.69837 138.23 9.36061 137.479 8.8781C137.628 11.3292 137.741 13.6163 137.916 15.8986C138.215 19.8551 138.565 23.802 138.869 27.7586C139.378 34.3351 139.934 40.9069 140.341 47.4882C140.614 51.9032 139.872 56.1444 136.639 59.6233C135.805 60.5207 134.606 61.1962 133.458 61.7559C131.723 62.6003 129.906 63.3096 128.083 63.9851C123.558 65.6642 120.562 69.037 117.437 72.2842C116.938 72.8005 116.444 73.3216 115.898 73.7896C112.361 76.8246 108.016 75.7004 106.539 71.3916C105.628 68.733 106.333 66.2046 107.198 63.686C107.373 63.1745 107.584 62.6679 107.821 62.0503C104.423 60.4725 102.323 57.9104 101.35 54.1613C99.2957 55.8838 97.391 57.4279 95.548 59.0298C90.9662 63.0201 86.4772 67.1069 81.8182 71.0104C79.481 72.9694 76.7423 74.4265 73.5659 74.9863C70.8581 75.4639 68.6444 74.4507 68.0421 71.9609C67.5427 69.8862 67.1669 67.5894 67.5891 65.5484C68.2068 62.5762 69.5917 59.7487 70.6522 56.8585C70.8735 56.9116 71.0949 56.9598 71.3162 57.0129C71.2081 57.5292 71.1464 58.0599 70.9765 58.5618C70.2712 60.6414 69.4166 62.6872 68.8452 64.8006C68.3819 66.5279 67.9752 68.4483 69.6792 69.8234C71.4604 71.2613 73.7152 71.1166 75.5325 70.1612C78.4668 68.622 81.36 66.8946 83.9031 64.8488C89.4836 60.347 94.8324 55.604 100.253 50.9285C100.588 50.639 100.871 50.0986 100.861 49.6836C100.66 43.2953 102.776 37.7754 107.682 33.2543C107.867 33.0854 107.965 32.8394 108.222 32.4582ZM107.507 50.7645C106.534 51.2566 105.36 51.8887 104.15 52.4629C103.285 52.873 103.409 53.3748 103.8 54.0358C105.489 56.9019 108.289 58.2433 111.548 58.6341C119.816 59.6233 126.194 56.4001 131.028 50.3254C133.206 47.5847 132.068 43.6764 128.732 42.2868C126.889 41.5196 124.799 41.0564 122.781 40.9213C118.184 40.6222 113.551 40.5305 109.401 42.9913C107.733 43.9804 107.682 44.1155 108.732 45.8525C109.623 45.6402 110.524 45.3893 111.445 45.206C114.812 44.5305 116.65 45.592 117.288 48.7572C117.509 49.8477 117.494 51.054 117.247 52.1396C116.552 55.1697 113.947 56.1347 111.27 54.3061C109.937 53.3941 108.897 52.101 107.507 50.7693V50.7645ZM110.832 30.4606C114.601 28.5209 118.343 26.5909 122.4 24.4968C115.677 23.7731 109.288 23.3147 102.771 23.9419C102.884 24.2942 102.879 24.4245 102.946 24.4727C105.602 26.4944 108.264 28.5161 110.832 30.4606ZM114.977 50.5425C114.194 49.1963 113.098 48.9165 111.224 49.5775C112.464 50.8851 113.587 51.1746 114.977 50.5425Z" fill="white"/>
<path d="M4.10879 54.7404C3.5631 56.2216 2.96593 57.6933 2.49231 59.1939C1.95692 60.902 1.32886 62.6197 1.10235 64.376C0.669917 67.6956 2.98138 69.5243 6.30185 68.2988C8.30442 67.5605 10.1011 66.1902 11.7793 64.8682C15.4344 61.9876 19.0741 59.107 23.383 57.0757C23.7382 56.9068 24.0779 56.2409 24.0265 55.8501C23.5477 52.1396 24.8913 48.9792 27.4447 46.2965C29.2311 44.4195 30.4975 44.3375 31.9904 46.6825C33.226 48.627 34.8013 50.393 36.2839 52.1927C36.6443 52.6318 37.2311 52.902 37.4782 53.0805C37.4782 51.2904 37.3289 49.4617 37.5091 47.662C37.8746 43.9949 40.5053 41.7899 44.3972 42.2386C47.6301 42.6101 50.7756 43.6186 53.9879 44.2314C57.7151 44.9407 61.468 45.5293 65.2106 46.1759C65.504 46.2289 65.7872 46.3544 66.2505 46.4991C65.8078 47.58 65.4474 48.6077 64.9635 49.5775C64.8193 49.867 64.3509 50.1807 64.0163 50.1951C59.5117 50.3688 55.9545 52.8007 52.1295 54.5618C48.6546 56.1589 45.226 57.8187 41.3495 58.4556C40.7884 58.5473 40.3663 59.3772 40.1912 59.5558C39.1307 58.8272 38.1526 58.06 37.0715 57.4424C34.4666 55.9563 32.4486 54.0069 31.069 51.4448C29.4782 48.4967 28.8759 48.4726 26.688 51.1457C25.7665 52.2747 24.8759 53.4714 25.8283 54.9189C26.0548 55.2663 26.7755 55.3966 27.3006 55.4786C27.6301 55.5317 28.011 55.3145 28.3662 55.2277C32.9428 54.1179 35.5889 56.1348 35.3315 60.6076C35.2388 62.2771 34.93 64.0479 33.0921 64.7813C31.1822 65.5437 29.4164 64.7861 28.0419 63.4592C27.0586 62.5039 26.2556 61.3845 25.1848 60.1203C23.9698 60.7475 22.5027 61.3266 21.262 62.1854C17.9364 64.4821 14.7086 66.8995 11.4396 69.2638C10.6828 69.809 9.95179 70.3929 9.15385 70.8754C5.42153 73.1383 1.24135 71.6667 0.263223 67.5943C-0.107434 66.0503 -0.0611018 64.3229 0.242631 62.7548C0.808913 59.8356 2.06503 57.1191 3.73813 54.6004C3.86683 54.6439 3.99554 54.6873 4.12424 54.7355L4.10879 54.7404ZM56.1346 49.5486C56.0883 49.3363 56.0471 49.124 56.0008 48.9117C54.024 48.3809 52.0677 47.7585 50.06 47.3435C47.5426 46.8273 44.9943 46.2531 42.4358 46.1276C39.5014 45.978 38.1784 47.9515 39.1925 50.4509C39.4396 51.054 39.6764 51.6571 39.9184 52.2603C40.706 54.253 40.9017 54.5908 43.0947 53.949C47.5014 52.6608 51.7897 51.0347 56.1295 49.5486H56.1346ZM32.7112 60.7283C32.2993 59.218 31.28 58.8803 28.9171 59.4544C29.9261 60.5931 31.105 60.9647 32.7112 60.7283Z" fill="white"/>
<path d="M193.808 59.4882C193.262 60.9791 192.732 62.1468 192.403 63.3627C191.795 65.6112 191.059 67.8645 190.822 70.1564C190.57 72.5979 192.47 74.0647 194.997 73.4326C196.573 73.0418 198.148 72.2601 199.425 71.2999C203.842 67.9851 207.929 64.265 213.118 61.9296C213.453 61.7801 213.69 61.0418 213.643 60.6076C213.252 56.5738 214.864 53.3024 217.999 50.6824C219.816 49.1625 220.619 49.4038 221.726 51.4641C221.963 51.908 222.21 52.3519 222.436 52.8006C223.811 55.5075 225.726 56.1203 228.871 54.9333C230.097 54.4701 231.167 53.5582 232.187 52.7234C233.211 51.8839 234.086 50.8851 235.028 49.9587C235.162 50.0262 235.291 50.0889 235.425 50.1565C235.347 50.5473 235.291 50.9382 235.198 51.3242C234.714 53.341 236.48 55.136 238.663 54.7789C241.154 54.3688 242.503 52.6414 243.692 50.7645C243.991 50.2916 244.284 49.8139 244.583 49.3362C244.748 49.3845 244.913 49.4376 245.072 49.4858C245.072 49.8766 245.082 50.2675 245.072 50.6535C245.021 52.3664 245.7 53.4568 247.157 53.9924C248.403 54.4508 251.147 54.0937 251.759 53.1722C252.094 52.6704 252.079 51.7681 251.852 51.1698C250.745 48.2313 249.438 45.3556 248.362 42.4074C247.785 40.8297 247.348 39.1554 247.224 37.5004C247.147 36.4388 247.765 35.3339 248.073 34.2483C248.248 34.2 248.423 34.1469 248.598 34.0987C249.958 35.9949 251.317 37.8864 252.676 39.7826C252.557 39.8936 252.439 40.0046 252.321 40.1204C251.806 39.9853 251.286 39.855 250.544 39.662C250.884 40.7139 251.188 41.6403 251.481 42.5715C252.192 44.8586 252.933 47.136 253.597 49.4327C254.261 51.7343 253.53 53.8621 252.429 55.8838C251.548 57.5002 250.148 58.4797 248.12 58.4363C246.127 58.3977 244.954 57.2349 244.063 55.7343C243.837 55.3531 243.687 54.9333 243.384 54.2771C242.941 55.0491 242.622 55.6426 242.266 56.2168C241.386 57.645 240.248 58.7499 238.395 59.0298C236.295 59.3531 234.622 58.4411 233.824 56.4387C233.628 55.9417 233.484 55.4255 233.299 54.8658C232.012 56.0479 230.879 57.3072 229.52 58.2867C225.906 60.8971 222.956 60.2119 220.892 56.4146C219.291 53.4713 219.069 53.4279 216.614 55.9031C215.61 56.9164 214.544 57.9586 215.255 59.5798C215.615 60.4001 216.068 60.7089 217.072 60.4194C218.225 60.0913 219.461 59.797 220.645 59.85C221.556 59.8886 222.637 60.294 223.301 60.873C225.371 62.6679 225.479 67.0104 223.667 69.008C222.632 70.1515 220.722 70.4652 219.193 69.3699C217.587 68.2215 216.259 66.7354 214.436 65.0515C212.408 66.2625 209.906 67.6136 207.589 69.1962C205.154 70.8608 202.889 72.7523 200.552 74.5424C200.305 74.7305 200.084 74.9525 199.816 75.1165C197.741 76.3855 195.646 77.6786 193.057 76.3759C190.483 75.0828 189.463 72.8343 189.489 70.2915C189.53 66.5328 191.167 63.16 193.031 59.9031C193.093 59.797 193.288 59.7535 193.788 59.4737L193.808 59.4882ZM222.596 65.4278C221.525 63.7149 220.068 64.125 218.452 64.1636C219.564 65.5629 220.809 65.8379 222.596 65.4278Z" fill="white"/>
<path d="M175.198 42.9381C175.738 44.2312 176.279 45.1384 176.5 46.1082C177.262 49.452 177.854 52.8343 178.647 56.1733C178.977 57.5629 179.527 58.9428 180.222 60.207C181.252 62.084 183.419 62.8849 185.628 62.4458C187.646 62.0405 188.13 61.1238 187.363 59.3385C186.199 56.6316 184.989 53.9344 184.001 51.1745C183.383 49.452 182.94 47.6281 182.786 45.8187C182.699 44.7716 183.332 43.6667 183.635 42.5907C183.821 42.5521 184.006 42.5135 184.186 42.4749C185.52 44.3808 186.853 46.2915 188.181 48.1974C188.042 48.3036 187.898 48.4049 187.759 48.5111C187.28 48.3808 186.796 48.2457 186.04 48.0382C186.822 50.2819 187.543 52.3325 188.248 54.388C189.221 57.2058 189.777 60.0574 188.845 62.9862C188.227 64.9404 187.213 66.5761 184.804 66.8994C182.395 67.2178 180.341 66.4989 178.992 64.6268C177.968 63.213 177.293 61.5773 176.588 60.2697C175.991 61.5291 175.44 63.1213 174.539 64.5158C172.789 67.2323 169.916 68.3758 166.982 67.7727C164.32 67.2226 162.421 65.1961 162.199 61.9537C162.024 59.4012 162.4 56.815 162.585 54.2529C162.632 53.6256 162.884 53.0128 162.693 52.2505C162.266 53.1383 161.705 53.9923 161.432 54.9187C160.614 57.6932 159.919 60.4965 159.146 63.2806C158.976 63.8982 158.735 64.5206 158.421 65.0852C156.969 67.7196 154.621 67.8933 152.953 65.3891C152.217 64.2842 151.728 62.9669 151.44 61.6787C150.776 58.7161 151.007 55.7487 151.857 52.8295C151.944 52.5207 152.13 52.236 152.572 52.0044C152.511 52.6124 152.387 53.2203 152.392 53.8283C152.418 56.2987 152.433 58.7691 152.572 61.2299C152.603 61.8282 152.974 62.4748 153.36 62.9862C154.415 64.3662 156.145 64.3662 156.974 62.8704C157.695 61.5677 158.112 60.1009 158.539 58.6775C159.558 55.2951 160.016 51.739 162.184 48.7282C162.271 48.6027 162.323 48.4339 162.441 48.3567C163.131 47.9031 163.831 47.4689 164.531 47.0298C164.691 47.7921 165.061 48.5834 164.969 49.3169C164.66 51.7776 164.088 54.2095 163.821 56.6702C163.682 57.9778 163.785 59.3626 164.094 60.6461C164.572 62.634 166.24 63.6666 168.454 63.6425C172.65 63.599 175.538 60.9935 175.357 57.0562C175.239 54.4555 174.884 51.8114 174.168 49.3024C173.535 47.0877 174.045 45.2638 175.198 42.9333V42.9381Z" fill="white"/>
<path d="M40.1037 60.7428C39.6198 62.089 39.0432 63.411 38.6674 64.7862C38.096 66.8851 37.4113 68.9984 37.2259 71.1359C37.0097 73.6402 39.0432 75.1118 41.576 74.2578C43.244 73.6932 44.8244 72.6365 46.1474 71.4978C48.3611 69.5968 50.0496 67.0588 52.4795 65.5051C55.7279 63.4255 59.3984 61.8815 63.0175 60.3809C66.9454 58.7548 68.1604 57.0275 67.8412 53.0082C67.4036 47.4738 67.105 41.9299 66.7395 36.3859C66.7035 35.8455 66.6983 35.2664 66.4821 34.7839C65.643 32.9022 66.8888 31.5077 67.4551 29.9492C67.6198 29.9299 67.7897 29.9106 67.9544 29.8865C69.1745 32.9504 70.3946 36.0095 71.6147 39.0734C71.4911 39.1747 71.3624 39.2712 71.2389 39.3726C70.688 39.0252 70.1423 38.6729 69.329 38.1518C69.504 40.3617 69.679 42.3931 69.818 44.4196C70.1475 49.2591 70.8528 54.1228 68.6649 58.7934C67.4396 61.4038 65.6378 63.358 62.6571 64.376C60.2787 65.1866 57.993 66.2723 55.7279 67.3483C52.2324 69.0081 49.9467 71.9514 47.3263 74.528C46.7807 75.0684 46.271 75.6522 45.679 76.1444C42.1063 79.1214 37.6378 77.9731 36.3971 73.6257C35.975 72.154 36.0007 70.4749 36.2375 68.9454C36.7008 65.9394 38.0754 63.2084 39.6404 60.5787C39.7999 60.6318 39.9595 60.68 40.1191 60.7331L40.1037 60.7428Z" fill="white"/>
<path d="M145.339 66.9333C145.391 66.1178 145.514 65.2976 145.489 64.4821C145.334 60.0238 145.216 55.5654 144.943 51.1167C144.541 44.6367 144.027 38.1566 143.538 31.6814C142.935 23.6235 142.23 15.5705 141.761 7.50297C141.643 5.41372 140.408 3.23762 141.916 1.15802C142.148 0.834736 142.302 0.463206 142.925 0C144.16 3.07839 145.401 6.15678 146.637 9.23517C146.498 9.33167 146.364 9.433 146.225 9.5295C145.664 9.19174 145.103 8.85399 144.33 8.38596C144.464 10.3932 144.572 12.246 144.716 14.0892C145.19 20.2218 145.674 26.3497 146.153 32.4823C146.652 38.8562 147.187 45.2301 147.64 51.6089C147.975 56.3037 148.428 61.0274 146.456 65.5581C146.24 66.0551 145.983 66.5376 145.741 67.0249C145.607 66.9912 145.468 66.9574 145.334 66.9284L145.339 66.9333Z" fill="white"/>
<path d="M195.172 31.7248C196.423 34.808 197.68 37.8912 198.931 40.9744C198.776 41.0565 198.622 41.1433 198.467 41.2253C197.963 40.9358 197.453 40.6463 196.655 40.1831C196.815 42.668 196.969 44.9213 197.103 47.1746C197.314 50.7404 197.638 54.3013 197.685 57.867C197.721 60.8633 196.928 63.7391 195.209 66.4073C195.209 65.9152 195.219 65.423 195.209 64.9309C195.095 60.4677 195.044 55.9997 194.848 51.5413C194.653 47.1312 194.318 42.7308 194.009 38.3255C193.952 37.5486 193.577 36.7622 193.644 36.0046C193.772 34.5812 194.117 33.1723 194.369 31.7586C194.637 31.7441 194.905 31.7296 195.172 31.72V31.7248Z" fill="white"/>
<path d="M74.8375 30.6343C76.1193 33.7272 77.4063 36.8201 78.6882 39.9129C78.5183 40.0287 78.3484 40.1445 78.1785 40.2603C77.6483 39.8743 77.118 39.4931 76.3458 38.9286C76.4745 40.9986 76.6135 42.8803 76.701 44.7669C76.9121 49.3121 77.2364 53.8622 77.2467 58.4074C77.2467 60.8199 76.4951 63.1842 74.8375 65.2879C74.8941 64.5159 75.0228 63.7439 74.9971 62.9767C74.8272 58.224 74.6315 53.4762 74.4153 48.7283C74.2351 44.7669 74.0138 40.8104 73.8079 36.8538C73.7873 36.5064 73.8645 36.1011 73.6946 35.8309C72.4694 33.8816 73.7821 32.3521 74.8375 30.6343Z" fill="white"/>
<path d="M235.96 35.44H227.754C229.046 31.9177 229.88 31.2953 233.355 31.3677C235.198 31.4063 237.041 31.5848 238.869 31.8357C240.001 31.9901 240.331 32.6366 239.672 33.6547C237.844 36.4822 235.739 38.943 231.996 39.6089C230.812 39.8212 229.664 40.2072 228.5 40.516C228.434 40.4002 228.372 40.2844 228.305 40.1686C230.879 38.7934 233.453 37.4183 236.027 36.0383C236.006 35.8357 235.986 35.6378 235.97 35.4352L235.96 35.44Z" fill="white"/>
<path d="M210.585 48.3953C209.968 44.844 209.304 41.3169 208.758 37.7705C208.542 36.3568 209.278 35.5365 211.296 34.4171L211.121 34.06C210.539 34.3206 209.963 34.5811 209.216 34.9141C209.396 34.2289 209.54 33.5438 209.757 32.8827C209.926 32.352 210.472 31.7681 210.343 31.3387C209.957 30.0601 209.355 28.8345 208.753 27.6234C208.676 27.4738 208.053 27.6282 207.79 27.4738C207.198 27.1264 206.302 26.7259 206.225 26.2531C206.138 25.7272 206.709 24.9358 207.234 24.5595C207.497 24.3713 208.444 24.7284 208.83 25.0806C209.417 25.6162 209.865 26.3255 210.23 27.0251C210.575 27.6765 210.74 28.4099 211.044 29.2929C211.337 28.2072 211.569 27.2953 211.836 26.393C211.991 25.8671 212.109 25.3074 212.413 24.8586C212.892 24.1494 213.365 23.0396 214.544 23.7199C215.6 24.3279 215.903 25.3074 214.92 26.4413C214.472 26.1083 214.081 25.814 213.53 25.4039C211.908 27.3001 212.212 29.6789 211.322 31.6523C212.14 32.2651 212.928 32.7621 213.597 33.3749C214.73 34.4074 214.338 35.7199 212.82 36.2072C209.489 37.2735 209.638 37.2494 210.256 40.4822C210.699 42.8079 210.688 45.2107 210.843 47.5798C210.863 47.8694 210.658 48.1685 210.575 48.4049L210.585 48.3953Z" fill="white"/>
<path d="M158.781 42.3978C156.542 44.019 154.06 44.8248 151.27 44.6463C149.932 44.5594 149.473 43.7778 149.962 42.6921C150.271 42.0022 150.838 41.3556 151.445 40.8586C152.588 39.9274 153.844 39.1168 155.038 38.2676C154.261 37.65 153.401 37.2736 153.139 36.6656C152.887 36.0866 153.262 35.2712 153.365 34.5571C153.391 34.3641 153.458 34.1711 153.468 33.9733C153.623 31.9371 154.529 31.387 156.356 32.463C157.489 33.124 158.436 34.0987 159.358 35.0299C160.243 35.9274 159.811 37.0034 159.162 37.7513C158.812 38.1518 157.839 38.0842 157.144 38.2145C156.701 38.2965 156.109 38.1952 155.831 38.4316C154.179 39.8357 152.598 41.317 150.925 42.8272C153.463 43.7633 156.089 42.3496 158.771 42.3978H158.781ZM158.508 36.7718C158.58 36.6222 158.652 36.4726 158.724 36.3231C158.184 35.855 157.643 35.3918 156.845 34.7018C156.768 35.5511 156.727 36.0094 156.675 36.5884C157.345 36.656 157.926 36.7139 158.508 36.7718ZM153.71 35.4883C153.767 35.6476 153.823 35.8068 153.88 35.9612C154.441 36.0915 155.008 36.2217 155.98 36.4437C155.641 35.5896 155.43 35.0589 155.219 34.5233C154.719 34.8466 154.215 35.165 153.715 35.4883H153.71Z" fill="white"/>
<path d="M23.9905 68.1974C25.1746 68.955 26.2505 69.5774 27.2235 70.3108C27.486 70.5087 27.6456 71.1263 27.5169 71.4254C27.1514 72.2795 26.6109 73.0659 26.0652 74.0068C24.8451 73.2493 23.7589 72.5738 22.5851 71.8452C22.0909 72.6076 21.607 73.3506 21.0562 74.2046C19.939 73.5098 18.8631 72.9067 17.8798 72.1878C17.6327 72.0044 17.4989 71.4061 17.6173 71.107C17.9674 70.2433 18.4667 69.4327 18.997 68.4387C20.2222 69.1818 21.3136 69.8476 22.5748 70.6148C22.9815 69.9152 23.4088 69.1914 23.9854 68.2023L23.9905 68.1974Z" fill="white"/>
<path d="M181.02 25.0759C180.603 25.5246 180.279 26.1953 179.754 26.3883C173.952 28.5355 168.125 30.6151 162.302 32.7092C162.184 32.6175 162.07 32.5258 161.952 32.4341C162.451 31.8696 162.832 31.0107 163.471 30.7791C169.18 28.6995 174.935 26.7309 180.675 24.7285C180.794 24.8443 180.907 24.9601 181.025 25.0759H181.02Z" fill="white"/>
<path d="M160.372 70.1901C159.939 70.6292 159.594 71.2806 159.059 71.4784C153.262 73.6256 147.44 75.7004 141.515 77.8379C141.571 76.5882 142.153 75.985 143.358 75.5797C148.928 73.7076 154.462 71.7438 160.006 69.809C160.13 69.9392 160.253 70.0647 160.372 70.195V70.1901Z" fill="white"/>
<path d="M109.283 7.696C110.04 7.14112 110.714 6.37393 111.569 6.0603C116.747 4.18336 121.973 2.41256 127.182 0.607984C127.466 0.511482 127.774 0.458407 128.382 0.632109C128.006 1.06154 127.728 1.7081 127.244 1.88663C121.494 4.02895 115.713 6.10373 109.942 8.19298C109.865 8.22193 109.746 8.16403 109.648 8.14473C109.525 7.99516 109.401 7.84075 109.278 7.69118L109.283 7.696Z" fill="white"/>
<path d="M252.629 66.8368C252.114 67.3048 251.682 67.9755 251.064 68.2071C245.35 70.3205 239.605 72.3567 233.504 74.1709C234.029 73.5774 234.436 72.6896 235.105 72.4435C240.634 70.4315 246.215 68.54 251.78 66.6148C251.965 66.5521 252.176 66.5618 252.377 66.5376C252.459 66.639 252.542 66.7355 252.629 66.8368Z" fill="white"/>
<path d="M82.0962 78.3687C82.6059 77.7077 82.8993 76.8778 83.4553 76.6799C89.2159 74.5907 95.0126 72.6028 100.799 70.5859L101.144 70.9043C100.737 71.3531 100.418 72.0286 99.9032 72.2216C94.2146 74.3446 88.49 76.3953 82.7706 78.4604C82.6934 78.4893 82.5801 78.4363 82.0911 78.3687H82.0962Z" fill="white"/>
<path d="M40.495 35.6234C41.0819 35.0782 41.5606 34.2869 42.2659 34.0312C47.6559 32.0867 53.087 30.2435 58.5131 28.3762C58.7859 28.2797 59.0896 28.2604 59.625 28.5209C59.1463 28.96 58.7499 29.5873 58.1784 29.8044C52.5208 31.9178 46.8374 33.9684 41.1591 36.0239C41.0767 36.0529 40.9635 35.9998 40.8605 35.9853C40.7421 35.8647 40.6185 35.7441 40.5001 35.6234H40.495Z" fill="white"/>
<path d="M14.0547 80.3373C14.7446 79.7921 15.3418 79.0297 16.1397 78.7451C21.3186 76.8681 26.5387 75.0925 31.7485 73.2928C32.1243 73.1625 32.5207 73.0853 32.9119 72.9839C32.9995 73.0901 33.0921 73.1963 33.1796 73.3024C32.7163 73.7415 32.3354 74.3832 31.7742 74.5907C26.1268 76.7041 20.4486 78.7499 14.7806 80.8054C14.6983 80.8343 14.5798 80.7861 14.4769 80.7764C14.3379 80.6317 14.1989 80.4821 14.0547 80.3373Z" fill="white"/>
<path d="M124.727 8.16403C124.67 8.91192 124.5 9.67428 124.583 10.4077C124.66 11.1073 124.953 11.807 125.273 12.4487C125.324 12.5548 126.225 12.5211 126.328 12.3474C126.688 11.7442 127.038 11.0542 127.069 10.3836C127.116 9.42337 126.884 8.44871 126.776 7.47887C127.023 7.44027 127.27 7.4065 127.522 7.3679C127.749 8.43906 128.017 9.5054 128.192 10.5862C128.361 11.6767 128.753 12.3811 130.251 11.9517C129.999 10.3401 128.387 8.89744 130.029 7.13147C130.328 8.83472 130.76 10.5331 130.858 12.246C130.889 12.7864 130.127 13.6694 129.54 13.8431C129.005 14.0024 128.217 13.4137 127.342 13.0759C127.445 12.936 127.378 13.1145 127.244 13.1917C126.549 13.6164 125.695 14.4559 125.165 14.3112C124.547 14.1423 124.063 13.1435 123.78 12.4149C123.445 11.5705 123.244 10.6248 123.265 9.73218C123.28 9.14352 123.79 8.55969 124.078 7.97586C124.3 8.03858 124.521 8.10131 124.742 8.16403H124.727Z" fill="white"/>
<path d="M175.702 37.7706C175.167 36.2652 173.854 34.948 175.383 33.2254C175.733 34.8081 176.253 36.381 176.346 37.9733C176.382 38.6006 175.584 39.5125 174.915 39.8454C174.508 40.0481 173.612 39.3967 172.804 39.0782C172.809 39.0686 172.727 39.3484 172.531 39.4546C171.888 39.8116 171.11 40.4534 170.565 40.3279C169.993 40.1928 169.442 39.3533 169.211 38.7164C168.85 37.7224 168.624 36.6416 168.613 35.5945C168.608 35.0686 169.2 34.5379 169.88 34.0939C169.947 34.3931 170.065 34.6874 170.076 34.9866C170.086 35.4787 169.931 35.9902 170.024 36.463C170.158 37.1579 170.41 37.8382 170.714 38.4799C170.75 38.5523 171.687 38.4655 171.785 38.2676C172.114 37.6114 172.325 36.878 172.433 36.1542C172.495 35.7393 172.191 35.2857 172.191 34.8467C172.191 34.3545 172.351 33.8623 172.444 33.3702C172.614 33.3654 172.789 33.3557 172.958 33.3509C173.164 34.422 173.411 35.4884 173.561 36.5692C173.756 37.9492 174.204 38.2531 175.707 37.761L175.702 37.7706Z" fill="white"/>
<path d="M86.431 39.0589C85.8699 37.6162 85.4168 36.2555 84.7888 34.9672C84.6035 34.5861 83.9085 34.4317 83.476 34.1422C82.9046 33.761 81.9934 33.4087 81.9059 32.9359C81.8081 32.4148 82.3486 31.6138 82.8686 31.2375C83.1311 31.0445 84.1968 31.3484 84.4645 31.7103C85.3808 32.9455 86.1015 34.311 86.8017 35.469C87.1517 34.3448 87.4915 32.9069 88.0578 31.5511C88.3873 30.7694 89.0102 29.7369 90.1685 30.34C91.2598 30.9094 91.5481 31.913 90.6061 33.0517C90.1582 32.7381 89.7566 32.4534 89.2212 32.077C87.2598 34.0264 88.1247 36.9889 86.4362 39.0637L86.431 39.0589Z" fill="white"/>
<path d="M61.9878 36.9069C61.715 35.2905 60.0264 33.954 61.6171 31.8261C62.0496 33.7658 62.5695 35.3243 62.6622 36.9069C62.6982 37.5535 61.9518 38.5329 61.2928 38.8273C60.8398 39.0299 59.9183 38.3255 59.1101 37.9829C59.0792 38.036 58.9711 38.4461 58.7034 38.5908C58.1011 38.9141 57.37 39.3677 56.7883 39.2664C56.3095 39.1843 55.7947 38.4316 55.6094 37.8864C55.2542 36.8442 54.9814 35.7344 54.9608 34.6488C54.9505 34.0987 55.5528 33.539 55.8771 32.9841L56.4794 33.1434C56.4279 33.8864 56.2838 34.6391 56.3559 35.3725C56.4279 36.0722 56.6853 36.767 56.9839 37.4184C57.0303 37.5197 57.9826 37.4763 58.0959 37.2833C58.446 36.6849 58.7497 35.9901 58.7857 35.3195C58.8372 34.393 58.6262 33.4522 58.5283 32.5161C58.7703 32.4775 59.0122 32.4437 59.2542 32.4051C59.5013 33.5052 59.7742 34.6005 59.9801 35.7055C60.2117 36.9551 60.4383 37.1289 61.9878 36.9214V36.9069Z" fill="white"/>
<path d="M85.5349 50.89C85.0304 50.586 84.6804 50.3834 84.3355 50.1662C82.3998 48.9375 82.1218 47.2599 83.5015 45.1337C84.6083 45.8526 85.7357 46.533 86.7808 47.305C86.9918 47.4642 87.0485 48.0432 86.9249 48.3279C86.544 49.1819 86.0394 49.9829 85.5349 50.8852V50.89Z" fill="white"/>
<path d="M253.123 65.3459C252.47 64.9261 252.037 64.6511 251.61 64.3761C248.918 62.6294 248.892 62.3833 251.203 59.6234C252.269 60.2989 253.386 60.9358 254.4 61.6982C254.637 61.8767 254.688 62.5232 254.549 62.8465C254.194 63.6571 253.674 64.4098 253.129 65.3507L253.123 65.3459Z" fill="white"/>
</svg>
